<?xml version="1.0" encoding="iso-8859-1"?>
<!-- Generator: Adobe Illustrator 18.0.0, SVG Export Plug-In . SVG Version: 6.00 Build 0)  -->
<!DOCTYPE svg PUBLIC "-//W3C//DTD SVG 1.1//EN" "http://www.w3.org/Graphics/SVG/1.1/DTD/svg11.dtd">
<svg version="1.1" fill='#fff' id="Capa_1" xmlns="http://www.w3.org/2000/svg" xmlns:xlink="http://www.w3.org/1999/xlink" x="0px" y="0px"
	 viewBox="0 0 234.96 234.96" style="enable-background:new 0 0 234.96 234.96;" xml:space="preserve">
<path d="M19.439,184.606l-3.569,34.483l47.508-4.917l8.345-8.345l0,0L187.37,90.182l10.607,10.606L85.722,213.041l-13.62,13.62
	l-4.531,2.157L8.232,234.96L0,226.728l6.142-59.339l12.763-4.531l40.033,40.034l-10.606,10.606L19.439,184.606z M234.96,50.37
	c0.001-8.665-3.373-16.811-9.501-22.938l-17.93-17.93C201.402,3.374,193.256,0,184.591,0c-8.664,0-16.81,3.374-22.937,9.502
	l-15.521,15.522l-0.001-0.001L18.527,152.629l10.606,10.606L154.915,37.455l0.001,0.001l17.346-17.348
	c3.293-3.294,7.672-5.108,12.33-5.108c4.657,0,9.036,1.814,12.33,5.108l17.931,17.93c3.294,3.294,5.108,7.673,5.107,12.331
	c0,4.657-1.815,9.036-5.108,12.329l-12.041,12.042L171.058,42.99l-10.605,10.606l42.358,42.358l22.647-22.65
	C231.585,67.178,234.96,59.033,234.96,50.37z"/>
<g>
</g>
<g>
</g>
<g>
</g>
<g>
</g>
<g>
</g>
<g>
</g>
<g>
</g>
<g>
</g>
<g>
</g>
<g>
</g>
<g>
</g>
<g>
</g>
<g>
</g>
<g>
</g>
<g>
</g>
</svg>
