<?xml version="1.0" encoding="iso-8859-1"?>
<!-- Generator: Adobe Illustrator 18.0.0, SVG Export Plug-In . SVG Version: 6.00 Build 0)  -->
<!DOCTYPE svg PUBLIC "-//W3C//DTD SVG 1.1//EN" "http://www.w3.org/Graphics/SVG/1.1/DTD/svg11.dtd">
<svg version="1.1" fill='#fff' id="Capa_1" xmlns="http://www.w3.org/2000/svg" xmlns:xlink="http://www.w3.org/1999/xlink" x="0px" y="0px"
	 viewBox="0 0 234.039 234.039" style="enable-background:new 0 0 234.039 234.039;" xml:space="preserve">
<path d="M205.978,77.069l18.291-18.291L175.262,9.771L156.97,28.062c-1.744-0.784-3.512-1.518-5.297-2.196V0H82.366v25.865
	c-1.785,0.679-3.552,1.412-5.297,2.196L58.778,9.771L9.77,58.777l18.292,18.291c-0.785,1.745-1.518,3.513-2.197,5.298H0v69.307
	h25.865c0.679,1.785,1.412,3.553,2.196,5.297L9.771,175.261l49.008,49.008l18.291-18.291c1.744,0.784,3.512,1.517,5.297,2.196
	v25.865h69.307v-25.865c1.785-0.679,3.553-1.412,5.297-2.196l18.291,18.291l49.008-49.008l-18.291-18.291
	c0.784-1.744,1.517-3.512,2.196-5.297h25.865V82.366h-25.865C207.495,80.581,206.762,78.813,205.978,77.069z M219.039,136.673
	h-21.687l-1.656,5.239c-1.425,4.508-3.256,8.925-5.444,13.128l-2.538,4.878l15.343,15.343l-27.795,27.795l-15.343-15.343
	l-4.878,2.538c-4.204,2.189-8.621,4.021-13.127,5.444l-5.24,1.656v21.688H97.366v-21.688l-5.24-1.656
	c-4.506-1.424-8.922-3.256-13.128-5.444l-4.878-2.538l-15.342,15.343l-27.795-27.795l15.343-15.343l-2.539-4.878
	c-2.188-4.203-4.019-8.62-5.444-13.128l-1.656-5.239H15V97.366h21.688l1.656-5.24c1.423-4.504,3.255-8.921,5.445-13.129l2.538-4.878
	L30.984,58.777l27.794-27.794L74.12,46.325l4.877-2.537c4.211-2.191,8.628-4.021,13.129-5.444l5.24-1.656V15h39.307v21.688
	l5.24,1.656c4.501,1.423,8.918,3.254,13.13,5.445l4.877,2.536l15.342-15.342l27.794,27.795l-15.343,15.343l2.538,4.878
	c2.188,4.204,4.021,8.621,5.444,13.127l1.656,5.24h21.687V136.673z M117.02,71.213c-25.258,0-45.807,20.549-45.807,45.807
	s20.549,45.807,45.807,45.807c25.258,0,45.807-20.549,45.807-45.807S142.277,71.213,117.02,71.213z M117.02,147.826
	c-16.987,0-30.807-13.819-30.807-30.807s13.82-30.807,30.807-30.807c16.987,0,30.807,13.819,30.807,30.807
	S134.007,147.826,117.02,147.826z"/>
<g>
</g>
<g>
</g>
<g>
</g>
<g>
</g>
<g>
</g>
<g>
</g>
<g>
</g>
<g>
</g>
<g>
</g>
<g>
</g>
<g>
</g>
<g>
</g>
<g>
</g>
<g>
</g>
<g>
</g>
</svg>
