<?xml version="1.0" encoding="iso-8859-1"?>
<!-- Generator: Adobe Illustrator 19.0.0, SVG Export Plug-In . SVG Version: 6.00 Build 0)  -->
<svg version="1.1" id="Capa_1" fill="#152B3E" xmlns="http://www.w3.org/2000/svg" xmlns:xlink="http://www.w3.org/1999/xlink" x="0px" y="0px"
	 viewBox="0 0 512 512" style="enable-background:new 0 0 512 512;" xml:space="preserve">
<g>
	<g>
		<path d="M448,0H85.333c-17.643,0-32,14.357-32,32v53.333H42.667C36.779,85.333,32,90.112,32,96s4.779,10.667,10.667,10.667H128
			c5.888,0,10.667-4.779,10.667-10.667S133.888,85.333,128,85.333H97.963C102.379,72.939,114.112,64,128,64
			c17.643,0,32,14.357,32,32c0,17.643-14.357,32-32,32H53.333v64H42.667C36.779,192,32,196.779,32,202.667
			s4.779,10.667,10.667,10.667H128c5.888,0,10.667-4.779,10.667-10.667S133.888,192,128,192H97.963
			c4.416-12.395,16.149-21.333,30.037-21.333c17.643,0,32,14.357,32,32c0,17.643-14.357,32-32,32H53.333v64H42.667
			c-5.888,0-10.667,4.779-10.667,10.667S36.779,320,42.667,320H128c5.888,0,10.667-4.779,10.667-10.667s-4.779-10.667-10.667-10.667
			H97.963c4.416-12.395,16.149-21.333,30.037-21.333c17.643,0,32,14.357,32,32c0,17.643-14.357,32-32,32H53.333v64H42.667
			C36.779,405.333,32,410.112,32,416c0,5.888,4.779,10.667,10.667,10.667H128c5.888,0,10.667-4.779,10.667-10.667
			c0-5.888-4.779-10.667-10.667-10.667H97.963C102.379,392.939,114.112,384,128,384c17.643,0,32,14.357,32,32
			c0,17.643-14.357,32-32,32H53.333v32c0,17.643,14.357,32,32,32H448c17.643,0,32-14.357,32-32V32C480,14.357,465.643,0,448,0z"/>
	</g>
</g>
<g>
</g>
<g>
</g>
<g>
</g>
<g>
</g>
<g>
</g>
<g>
</g>
<g>
</g>
<g>
</g>
<g>
</g>
<g>
</g>
<g>
</g>
<g>
</g>
<g>
</g>
<g>
</g>
<g>
</g>
</svg>
