<svg xmlns="http://www.w3.org/2000/svg" viewBox="0 0 387.78 265.2"><defs><style>.cls-1{fill:#f5f5f5;}.cls-2{fill:#263238;}.cls-3,.cls-4,.cls-9{fill:#407bff;}.cls-3{opacity:0.4;}.cls-5{opacity:0.3;}.cls-6{fill:#ffc3bd;}.cls-12,.cls-13,.cls-7{opacity:0.2;}.cls-10,.cls-12,.cls-14,.cls-8{fill:#fff;}.cls-8,.cls-9{opacity:0.5;}.cls-11{fill:#ed847e;}.cls-14{opacity:0.7;}</style></defs><title>writer-beard</title><g id="Shadow"><ellipse id="_Path_" data-name="&lt;Path&gt;" class="cls-1" cx="193.89" cy="253.88" rx="193.89" ry="11.32"/></g><g id="Character"><polygon class="cls-2" points="242.7 243.28 228.56 241.65 228.56 160.54 216.44 160.54 216.44 241.65 202.3 243.28 201.07 247.3 243.93 247.3 242.7 243.28"/><polygon class="cls-3" points="242.7 243.28 228.56 241.65 228.56 160.54 216.44 160.54 216.44 241.65 202.3 243.28 201.07 247.3 243.93 247.3 242.7 243.28"/><path class="cls-4" d="M275,213.75h63a341.84,341.84,0,0,0-16.26,103.12h-63A341.84,341.84,0,0,1,275,213.75Z" transform="translate(-56.11 -162.36)"/><path class="cls-5" d="M275,213.75h63a341.84,341.84,0,0,0-16.26,103.12h-63A341.84,341.84,0,0,1,275,213.75Z" transform="translate(-56.11 -162.36)"/><path class="cls-4" d="M271.17,213.75h63A341.84,341.84,0,0,0,317.9,316.87h-63A341.53,341.53,0,0,1,271.17,213.75Z" transform="translate(-56.11 -162.36)"/><path class="cls-4" d="M307.27,326.55H218.09c3.75-8.16,10.57-13.16,17.93-13.16h65.21Z" transform="translate(-56.11 -162.36)"/><path class="cls-4" d="M325.39,326.55H282.33c3.74-8.16,10.56-13.16,17.93-13.16H315.5c7.36,0,11,4.25,9.89,13.16Z" transform="translate(-56.11 -162.36)"/><path class="cls-5" d="M325.39,326.55H282.33c3.74-8.16,10.56-13.16,17.93-13.16H315.5c7.36,0,11,4.25,9.89,13.16Z" transform="translate(-56.11 -162.36)"/><polygon class="cls-6" points="181.34 238.95 173.27 240.01 168.02 221.73 176.09 220.67 181.34 238.95"/><path class="cls-2" d="M228.37,400.26l9-1.19a.59.59,0,0,1,.67.47l1.38,7.11a1.44,1.44,0,0,1-1.22,1.62c-3.16.36-4.69.37-8.67.9-2.45.32-10.88,1.49-14.29,1.51S212,407.33,213.4,407c6.47-1.4,11.6-4,13.64-6.07A2.31,2.31,0,0,1,228.37,400.26Z" transform="translate(-56.11 -162.36)"/><polygon class="cls-7" points="176.09 220.68 168.02 221.74 170.73 231.16 178.8 230.1 176.09 220.68"/><path class="cls-2" d="M263.92,284.1s-63.25,4.53-60.7,27.7c3.67,33.31,18,77.05,18,77.05l14.67-2.52S229.75,346,226.49,320c15.78-6.54,58.58-.27,63.6-13.9a44.65,44.65,0,0,0,1.89-22Z" transform="translate(-56.11 -162.36)"/><path class="cls-5" d="M233.1,303.39s1.54,6.89,2.59,14.37l-.14,0-1.62.25-.83.16-.93.17a36.64,36.64,0,0,0-3.76,1l-.85.28c-.37.12-.73.27-1.07.41.37,3,1.65,6.91,1.66,10.33C214.08,313.72,225.68,303.39,233.1,303.39Z" transform="translate(-56.11 -162.36)"/><polygon class="cls-4" points="182.08 227.31 164.87 229.57 162.55 223.38 179.78 219.51 182.08 227.31"/><path class="cls-4" d="M225.69,402a10.22,10.22,0,0,0,2.11-.57.2.2,0,0,0,.13-.16.19.19,0,0,0-.11-.18c-.28-.15-2.76-1.41-3.7-.89a.74.74,0,0,0-.37.59,1,1,0,0,0,.37,1A2.2,2.2,0,0,0,225.69,402Zm1.56-.77c-1.4.47-2.47.57-2.9.24a.67.67,0,0,1-.22-.65.34.34,0,0,1,.17-.29C224.81,400.29,226.24,400.79,227.25,401.27Z" transform="translate(-56.11 -162.36)"/><path class="cls-4" d="M227.76,401.48a.11.11,0,0,0,.08,0,.2.2,0,0,0,.09-.17c0-.09-.13-2.44-1.05-3.11a.92.92,0,0,0-.83-.16.73.73,0,0,0-.61.66c-.07.9,1.36,2.43,2.22,2.8A.17.17,0,0,0,227.76,401.48Zm-1.53-3.12a.6.6,0,0,1,.43.11,4.25,4.25,0,0,1,.86,2.49c-.78-.5-1.75-1.67-1.7-2.26,0-.12.05-.26.32-.32Z" transform="translate(-56.11 -162.36)"/><path class="cls-6" d="M272.68,221.55c-.7,3.14-1.55,6.06-2.4,9.06s-1.81,5.93-2.85,8.86-2.13,5.86-3.32,8.77-2.52,5.78-3.95,8.63l-.26.51-.1.15a13.36,13.36,0,0,1-3.16,3.18,25.29,25.29,0,0,1-2.95,1.85A42.18,42.18,0,0,1,248,265c-1.89.66-3.78,1.21-5.67,1.68a56.58,56.58,0,0,1-5.77,1.12L234.69,262l4.75-2.66c1.57-.9,3.12-1.79,4.6-2.71a46.59,46.59,0,0,0,4.14-2.81,12.84,12.84,0,0,0,1.59-1.4c.41-.43.71-.85.65-.89l-.36.66c1.09-2.66,2.09-5.39,3.06-8.15s1.85-5.56,2.72-8.39,1.7-5.66,2.51-8.51,1.6-5.75,2.35-8.5Z" transform="translate(-56.11 -162.36)"/><path class="cls-4" d="M259.46,219.38c-6.61,7.59-11,18.21-11,18.21L265.76,248c5-6.09,11.22-22.18,11.47-27.61C277.62,212.05,266.58,211.21,259.46,219.38Z" transform="translate(-56.11 -162.36)"/><path class="cls-8" d="M259.46,219.38c-6.61,7.59-11,18.21-11,18.21L265.76,248c5-6.09,11.22-22.18,11.47-27.61C277.62,212.05,266.58,211.21,259.46,219.38Z" transform="translate(-56.11 -162.36)"/><path class="cls-9" d="M265.55,227.12c-3.77,3.17-6.45,9.76-7.62,16.16l7.83,4.71c2.47-3,5.24-8.45,7.44-13.87C271.44,228.75,268.88,224.32,265.55,227.12Z" transform="translate(-56.11 -162.36)"/><polygon class="cls-6" points="207 243.82 198.87 243.82 195.14 224.99 203.27 224.99 207 243.82"/><path class="cls-2" d="M254.72,404.2h9.14a.58.58,0,0,1,.6.55l.44,7.23a1.44,1.44,0,0,1-1.42,1.45c-3.18-.06-4.7-.24-8.72-.24-2.47,0-10.85.25-14.26.25s-3.32-3.37-1.87-3.68c6.48-1.37,12.4-3.26,14.69-5.06A2.29,2.29,0,0,1,254.72,404.2Z" transform="translate(-56.11 -162.36)"/><polygon class="cls-7" points="203.27 225 195.14 225 197.06 234.7 205.2 234.7 203.27 225"/><path class="cls-2" d="M279.85,284.1s-53.6,4.53-52.28,27.81c1.44,25.49,22.08,82.81,22.08,82.81h14.89s-6.74-51.86-10-77.82c15.11,0,46.46,2.85,51.48-10.78a40,40,0,0,0,1.43-21.6Z" transform="translate(-56.11 -162.36)"/><polygon class="cls-4" points="209.28 232.6 191.42 233.41 190.04 225.73 208.73 225.8 209.28 232.6"/><path class="cls-4" d="M251.84,405.62a10.65,10.65,0,0,0,2.17-.29.19.19,0,0,0,.14-.15.18.18,0,0,0-.08-.19c-.26-.18-2.56-1.76-3.55-1.37a.72.72,0,0,0-.44.54,1,1,0,0,0,.24,1A2.17,2.17,0,0,0,251.84,405.62Zm1.65-.57c-1.46.29-2.53.25-2.91-.13a.7.7,0,0,1-.13-.68.35.35,0,0,1,.21-.27C251.19,403.77,252.54,404.45,253.49,405.05Z" transform="translate(-56.11 -162.36)"/><path class="cls-4" d="M254,405.33l.08,0a.18.18,0,0,0,.1-.15c0-.1.19-2.44-.63-3.23a1,1,0,0,0-.8-.27.74.74,0,0,0-.69.58c-.18.88,1,2.58,1.84,3.06A.17.17,0,0,0,254,405.33Zm-1.12-3.3a.57.57,0,0,1,.41.17,4.22,4.22,0,0,1,.54,2.58c-.71-.59-1.52-1.88-1.4-2.46,0-.11.09-.25.37-.28Z" transform="translate(-56.11 -162.36)"/><path class="cls-6" d="M238.54,262.22l-9.09-2.28.64,9.72s9,0,9.76-2.65Z" transform="translate(-56.11 -162.36)"/><polygon class="cls-6" points="166.43 102.32 168.57 108.42 173.98 107.3 173.34 97.58 166.43 102.32"/><path class="cls-4" d="M264,284.52h43.48c.31-3.88-.59-16.52.08-32.61a206.39,206.39,0,0,1,4.32-35.46c.2-.88.4-1.74.61-2.62,0,0-2.21-.45-5.37-.91-2.62-.39-5.91-.78-9.13-.93a160.35,160.35,0,0,0-18.48,0c-2.84.26-5.62.73-7.83,1.16-2.83.57-4.5,1.06-4.5,1.06S256.44,238.8,264,284.52Z" transform="translate(-56.11 -162.36)"/><path class="cls-8" d="M264,284.52h43.48c.31-3.88-.59-16.52.08-32.61a206.39,206.39,0,0,1,4.32-35.46c.2-.88.4-1.74.61-2.62,0,0-2.21-.45-5.37-.91-2.62-.39-5.91-.78-9.13-.93a160.35,160.35,0,0,0-18.48,0c-2.84.26-5.62.73-7.83,1.16-2.83.57-4.5,1.06-4.5,1.06S256.44,238.8,264,284.52Z" transform="translate(-56.11 -162.36)"/><path class="cls-9" d="M307.53,251.92a206.61,206.61,0,0,1,4.32-35.47c-2.9-.25-7.87,0-8.69,4.73C302.27,226.22,302.2,238,307.53,251.92Z" transform="translate(-56.11 -162.36)"/><path class="cls-6" d="M315.22,219.46c.42.77.71,1.35,1,2s.61,1.3.9,2q.87,1.95,1.65,3.93a79.77,79.77,0,0,1,2.69,8.13,69.63,69.63,0,0,1,1.79,8.5,50.79,50.79,0,0,1,.52,8.94v.29l0,.57a9.74,9.74,0,0,1-.17,1.19,9.62,9.62,0,0,1-.72,2.16,11,11,0,0,1-2.19,3.09,17.73,17.73,0,0,1-4.57,3.22,39.38,39.38,0,0,1-8.53,3,74.65,74.65,0,0,1-8.3,1.49,79.06,79.06,0,0,1-8.32.6l-.82-6.05a153.54,153.54,0,0,0,14.61-4.9,36.17,36.17,0,0,0,6.23-3.13,7.13,7.13,0,0,0,1.8-1.59c.13-.19.13-.29.06-.2a.79.79,0,0,0-.12.26,1.17,1.17,0,0,0-.05.2s0,.1,0,.06l0-.21a58.88,58.88,0,0,0-2.87-14.07q-1.14-3.52-2.54-7c-.45-1.16-.93-2.32-1.43-3.46l-.77-1.69-.73-1.57Z" transform="translate(-56.11 -162.36)"/><path class="cls-4" d="M312.46,213.83c-7.92-2.5-13,3.83-10.8,14.8s5,15.06,5,15.06l18.52-2.62C323.67,230.31,320.56,216.39,312.46,213.83Z" transform="translate(-56.11 -162.36)"/><path class="cls-8" d="M312.46,213.83c-7.92-2.5-13,3.83-10.8,14.8s5,15.06,5,15.06l18.52-2.62C323.67,230.31,320.56,216.39,312.46,213.83Z" transform="translate(-56.11 -162.36)"/><path class="cls-6" d="M297.56,191.26l-4.94,4.1L285.88,201a22.22,22.22,0,0,1,.43,2.72c.36,3.66-.58,7-5.95,8.25,0,0-5.29,4.94,5.28,5.09s13-5,13-5C294.65,208.06,296.19,197.21,297.56,191.26Z" transform="translate(-56.11 -162.36)"/><path class="cls-10" d="M297.92,209.07s-5.52,5.77-12.8,7.94a5.92,5.92,0,0,1,4.76,5.59c5.23-1.56,11.44-9.42,11.27-10.88A33.83,33.83,0,0,1,297.92,209.07Z" transform="translate(-56.11 -162.36)"/><path class="cls-10" d="M282.77,210.7s-4.94,4.14,2.35,6.31a6.65,6.65,0,0,0-5.66,5,8.74,8.74,0,0,1-.8-10.66A32.26,32.26,0,0,0,282.77,210.7Z" transform="translate(-56.11 -162.36)"/><path class="cls-7" d="M285.88,201a22.22,22.22,0,0,1,.43,2.72c2.51-.5,5.87-3.18,6.22-5.74a12.22,12.22,0,0,0,.09-2.57Z" transform="translate(-56.11 -162.36)"/><path class="cls-2" d="M279.43,173c-3.32,2.75-2.72,13.39.47,12.41S284.91,168.48,279.43,173Z" transform="translate(-56.11 -162.36)"/><path class="cls-6" d="M299.6,182.7c-1.72,7.9-2.32,12.6-7,16.21a10.52,10.52,0,0,1-17-7.57c-.61-7.36,2.31-19.05,10.62-21.29A10.64,10.64,0,0,1,299.6,182.7Z" transform="translate(-56.11 -162.36)"/><path class="cls-2" d="M297,188.12c-1.28-1.58-1.37-5.6-.46-6.88-1.37-1.09-2.74-4.61-1.68-6-2.68-.18-16.55,3.15-19.31-6.81a12.91,12.91,0,0,0,4.34,0s-2.82-4.69,2.18-6.09c.73,2.37,6.76,2.61,9.75,2.5,6.13-.25,13.12,2.3,10.29,7.06C306.59,173.87,307.32,182.57,297,188.12Z" transform="translate(-56.11 -162.36)"/><path class="cls-2" d="M301,171.6s3.06.64,2.47-3.26C306,170.48,304.38,174.39,301,171.6Z" transform="translate(-56.11 -162.36)"/><path class="cls-6" d="M300.89,190a7.2,7.2,0,0,1-4.34,2.68c-2.24.4-2.92-1.66-1.93-3.65.89-1.8,3.13-4.17,5.19-3.66S302.22,188.28,300.89,190Z" transform="translate(-56.11 -162.36)"/><path class="cls-2" d="M296.28,185.33a24.92,24.92,0,0,1-4,8.07,9.39,9.39,0,0,1-8.16,3.71c-2.87-.05-2.43-4-2.43-4l-1.41-.32s.15,4.89-2.65,2.82a7.47,7.47,0,0,1-1.57-3,9.7,9.7,0,0,1-.5-2.68h0c-.68,1.08-.93,5.87.11,8.15a7.69,7.69,0,0,0,4.48,3.54,17.15,17.15,0,0,0,10.51-.37c5.1-2,5.84-6.92,6-9.72a45.43,45.43,0,0,1,1-6.16Z" transform="translate(-56.11 -162.36)"/><path class="cls-2" d="M286.06,183.42c-.1.65-.52,1.13-.95,1.08s-.69-.62-.59-1.26.53-1.14,1-1.09S286.16,182.77,286.06,183.42Z" transform="translate(-56.11 -162.36)"/><path class="cls-2" d="M278.7,182.54c-.1.65-.52,1.14-.95,1.09s-.69-.62-.59-1.27.53-1.13.95-1.08S278.8,181.89,278.7,182.54Z" transform="translate(-56.11 -162.36)"/><path class="cls-11" d="M281,182.8a21,21,0,0,1-3.08,4.63,3.16,3.16,0,0,0,2.62.63Z" transform="translate(-56.11 -162.36)"/><path class="cls-2" d="M280.5,191.26a5.62,5.62,0,0,0,4.29-1.11.19.19,0,1,0-.25-.29,5.4,5.4,0,0,1-4.69.88.19.19,0,0,0-.23.14.18.18,0,0,0,.13.23A5.53,5.53,0,0,0,280.5,191.26Z" transform="translate(-56.11 -162.36)"/><path class="cls-2" d="M290.24,179.4a.32.32,0,0,0,.17-.09.38.38,0,0,0,0-.54,3.67,3.67,0,0,0-3.23-1.27.38.38,0,0,0-.32.44.39.39,0,0,0,.45.31,3,3,0,0,1,2.53,1A.37.37,0,0,0,290.24,179.4Z" transform="translate(-56.11 -162.36)"/><path class="cls-2" d="M276.28,177.82a.35.35,0,0,0,.35-.07,3.18,3.18,0,0,1,2.74-.74.4.4,0,0,0,.48-.27.39.39,0,0,0-.27-.48h0a4,4,0,0,0-3.44.9.37.37,0,0,0-.05.54A.39.39,0,0,0,276.28,177.82Z" transform="translate(-56.11 -162.36)"/><path class="cls-6" d="M291.68,262.16h-7.51l3.64,8s7.38-.11,7-3.91Z" transform="translate(-56.11 -162.36)"/><polygon class="cls-6" points="220.9 104.95 224.75 110.15 231.7 107.8 228.06 99.8 220.9 104.95"/></g><g id="Desk"><rect class="cls-4" x="347.35" y="275.63" width="3.65" height="139.26" transform="translate(642.24 528.16) rotate(180)"/><rect class="cls-4" x="368.9" y="275.63" width="3.65" height="139.26" transform="translate(685.35 528.16) rotate(180)"/><rect class="cls-7" x="368.9" y="275.63" width="3.65" height="139.26" transform="translate(685.35 528.16) rotate(180)"/><rect class="cls-4" x="139.95" y="275.63" width="3.65" height="139.26" transform="translate(227.44 528.16) rotate(180)"/><polygon class="cls-7" points="83.84 113.27 87.49 113.27 87.49 206.84 83.84 198.68 83.84 113.27"/><rect class="cls-4" x="118.39" y="275.63" width="3.65" height="139.26" transform="translate(184.33 528.16) rotate(180)"/><rect class="cls-4" x="118.39" y="275.63" width="232.61" height="81.46" transform="translate(413.29 470.37) rotate(180)"/><rect class="cls-4" x="116.06" y="269.69" width="234.94" height="5.95" transform="translate(410.96 382.96) rotate(180)"/><rect class="cls-4" x="294.89" y="113.27" width="21.55" height="81.46"/><rect class="cls-7" x="294.89" y="113.27" width="21.55" height="81.46"/><rect class="cls-4" x="294.89" y="107.33" width="23.88" height="5.95"/><rect class="cls-7" x="294.89" y="107.33" width="23.88" height="5.95"/><rect class="cls-7" x="118.39" y="275.63" width="254.16" height="4.14" transform="translate(434.84 393.05) rotate(180)"/><path class="cls-4" d="M263.88,253.7H177.43a6.35,6.35,0,0,1-6.26-6l-2.28-50.24a5.69,5.69,0,0,1,5.71-6h86.45a6.35,6.35,0,0,1,6.25,6l2.29,50.24A5.68,5.68,0,0,1,263.88,253.7Z" transform="translate(-56.11 -162.36)"/><path class="cls-4" d="M262.72,253.7H176.27a6.35,6.35,0,0,1-6.26-6l-2.28-50.24a5.69,5.69,0,0,1,5.71-6h86.45a6.35,6.35,0,0,1,6.25,6l2.29,50.24A5.68,5.68,0,0,1,262.72,253.7Z" transform="translate(-56.11 -162.36)"/><path class="cls-12" d="M262.72,253.7H176.27a6.35,6.35,0,0,1-6.26-6l-2.28-50.24a5.69,5.69,0,0,1,5.71-6h86.45a6.35,6.35,0,0,1,6.25,6l2.29,50.24A5.68,5.68,0,0,1,262.72,253.7Z" transform="translate(-56.11 -162.36)"/><rect class="cls-4" x="154.64" y="60.99" width="16.51" height="30.36"/><path class="cls-4" d="M210.23,220.1l-7.29,49.57H220.8l7.29-49.57Zm10.49,15.75-1.18,8a2.5,2.5,0,0,1-2.47,2.14h-2.69a2.51,2.51,0,0,1-2.48-2.87l1.18-8a2.5,2.5,0,0,1,2.47-2.14h2.69A2.51,2.51,0,0,1,220.72,235.85Z" transform="translate(-56.11 -162.36)"/><path class="cls-12" d="M210.23,220.1l-7.29,49.57H220.8l7.29-49.57Zm10.49,15.75-1.18,8a2.5,2.5,0,0,1-2.47,2.14h-2.69a2.51,2.51,0,0,1-2.48-2.87l1.18-8a2.5,2.5,0,0,1,2.47-2.14h2.69A2.51,2.51,0,0,1,220.72,235.85Z" transform="translate(-56.11 -162.36)"/><polygon class="cls-4" points="174.87 103.69 143.61 103.69 139.77 107.33 183.18 107.33 174.87 103.69"/><polygon class="cls-12" points="174.87 103.69 143.61 103.69 139.77 107.33 183.18 107.33 174.87 103.69"/><path class="cls-4" d="M138.66,258.57c-1.76-1-1.16-10.62-.39-16.12.94-6.65,3.74-18.42,12.64-24.94,4.24-3.11,8.29-5.75,9-9.1,1.3,3,8.69,24.24-1.85,33.79C149.14,250.27,142.53,248.47,138.66,258.57Z" transform="translate(-56.11 -162.36)"/><g class="cls-13"><path d="M138.66,258.57c-1.76-1-1.16-10.62-.39-16.12.94-6.65,3.74-18.42,12.64-24.94,4.24-3.11,8.29-5.75,9-9.1,1.3,3,8.69,24.24-1.85,33.79C149.14,250.27,142.53,248.47,138.66,258.57Z" transform="translate(-56.11 -162.36)"/></g><path class="cls-4" d="M141,253.11c2.05-1.15-.3-12.36-2.18-18.74-2.27-7.72-7.73-21.36-20-28.82C113,202,107.47,199,106,195.09c-1.14,3.47-4.8,30.8,10,41.76C128.57,246.12,134.45,241.43,141,253.11Z" transform="translate(-56.11 -162.36)"/><path class="cls-10" d="M140,250.61a.29.29,0,0,1-.27-.2A173.38,173.38,0,0,0,128.25,223c-7.5-14.75-17.59-17.15-17.69-17.17a.27.27,0,0,1-.2-.33.27.27,0,0,1,.32-.21c.11,0,10.43,2.46,18.06,17.47a173.63,173.63,0,0,1,11.47,27.51.28.28,0,0,1-.19.34Z" transform="translate(-56.11 -162.36)"/><path class="cls-10" d="M108.1,215.51a.26.26,0,0,1-.19-.07.28.28,0,0,1,0-.39A12.31,12.31,0,0,1,122.05,213a.26.26,0,0,1,.12.36.26.26,0,0,1-.36.13,11.76,11.76,0,0,0-13.51,2A.3.3,0,0,1,108.1,215.51Z" transform="translate(-56.11 -162.36)"/><path class="cls-10" d="M118.67,233.76a.25.25,0,0,1-.14,0,.27.27,0,0,1-.1-.37c0-.09,5-8.34,12.33-6.32a.28.28,0,0,1,.19.34.28.28,0,0,1-.34.19c-6.91-1.91-11.66,6-11.7,6.07A.29.29,0,0,1,118.67,233.76Z" transform="translate(-56.11 -162.36)"/><path class="cls-10" d="M126.6,219.74a.29.29,0,0,1-.27-.2,4.13,4.13,0,0,1,.26-2.84,2.11,2.11,0,0,1,1.44-.95.26.26,0,0,1,.32.21.28.28,0,0,1-.21.33,1.49,1.49,0,0,0-1.08.7,3.65,3.65,0,0,0-.2,2.41.26.26,0,0,1-.19.33Z" transform="translate(-56.11 -162.36)"/><polygon class="cls-4" points="98.32 85.64 73 85.64 75.34 107.3 95.99 107.3 98.32 85.64"/><polygon class="cls-14" points="98.32 85.64 73 85.64 75.34 107.3 95.99 107.3 98.32 85.64"/><path class="cls-4" d="M355,250v-1.35a1.09,1.09,0,0,0-1.09-1.09H340.46a1.09,1.09,0,0,0-1.09,1.09v21H355v-2.44c3.4,0,6.07-3.78,6.07-8.61S358.41,250,355,250Zm0,15V252.22c2.1,0,3.88,2.94,3.88,6.42S357.11,265.06,355,265.06Z" transform="translate(-56.11 -162.36)"/><path class="cls-12" d="M355,250v-1.35a1.09,1.09,0,0,0-1.09-1.09H340.46a1.09,1.09,0,0,0-1.09,1.09v21H355v-2.44c3.4,0,6.07-3.78,6.07-8.61S358.41,250,355,250Zm0,15V252.22c2.1,0,3.88,2.94,3.88,6.42S357.11,265.06,355,265.06Z" transform="translate(-56.11 -162.36)"/><polygon class="cls-5" points="298.9 89.86 297.12 89.86 298.9 94.8 298.9 89.86"/><polygon class="cls-5" points="298.9 104.89 297.12 104.89 298.9 105.72 298.9 104.89"/></g></svg>